<svg width="123" height="40" viewBox="0 0 123 40" fill="none" xmlns="http://www.w3.org/2000/svg">
<g clip-path="url(#clip0_5911_22988)">
<path d="M41.1329 27.0659V25.6934C41.0277 25.9519 40.9339 26.2332 40.8561 26.5398L41.1329 27.0659Z" fill="#D1D3D4"/>
<path d="M50.828 27.1206V25.2653C50.6404 25.6313 50.5009 26.0454 50.4117 26.5098L50.828 27.1206Z" fill="#D1D3D4"/>
<path d="M60.1844 26.6219C60.0838 26.1758 59.9191 25.7709 59.6972 25.4003C59.4272 25.7938 59.1916 26.2376 58.9903 26.734L60.1844 26.6219Z" fill="#D1D3D4"/>
<path d="M41.8536 25.6245V24.252C41.7484 24.5105 41.6546 24.7918 41.5768 25.0984L41.8536 25.6245Z" fill="#D1D3D4"/>
<path d="M51.5486 25.6794V23.8242C51.361 24.1902 51.2215 24.6042 51.1323 25.0686L51.5486 25.6794Z" fill="#D1D3D4"/>
<path d="M60.905 25.1806C60.8044 24.7346 60.6397 24.3296 60.4178 23.959C60.1478 24.3525 59.9122 24.7963 59.7109 25.2927L60.905 25.1806Z" fill="#D1D3D4"/>
<path d="M18.4603 16.593L14.1275 19.6058V22.9663L18.4603 19.9535L22.7931 22.9663V19.6058L18.4603 16.593Z" fill="#FFA048"/>
<path d="M14.1275 25.1602V28.5207L18.4603 25.5079L22.7931 28.5207V25.1602L18.4603 22.1497L14.1275 25.1602Z" fill="#FFA048"/>
<path d="M14.1275 30.7168V34.075L18.4603 31.0622L22.7931 34.075V30.7168L18.4603 27.704L14.1275 30.7168Z" fill="#FFA048"/>
<path d="M22.8754 23.0921L18.4603 20.0244L14.0452 23.0921V19.5348L14.0795 19.5097L18.4603 16.4648L18.5061 16.4969L22.8732 19.5326V23.0921H22.8754ZM14.2076 19.6195V22.781L18.4603 19.8254L18.5061 19.8574L22.713 22.781V19.6195L18.4603 16.6639L14.2076 19.6195Z" fill="#1E344E"/>
<path d="M22.8754 28.6464L18.4603 25.5787L14.0452 28.6464V25.0892L14.0795 25.064L18.4603 22.0192L18.5061 22.0512L22.8732 25.0869V28.6464H22.8754ZM14.2076 25.1761V28.3376L18.4603 25.382L18.5061 25.414L22.713 28.3376V25.1761L18.4603 22.2205L14.2076 25.1761Z" fill="#1E344E"/>
<path d="M22.8754 34.2031L18.4603 31.1354L14.0452 34.2031V30.6458L14.0795 30.6206L18.4603 27.5758L18.5061 27.6078L22.8732 30.6435V34.2031H22.8754ZM14.2076 30.7305V33.892L18.4603 30.9363L18.5061 30.9684L22.713 33.892V30.7305L18.4603 27.7748L14.2076 30.7305Z" fill="#1E344E"/>
<path d="M12.7046 7.00086C13.7798 5.72436 15.2073 4.80244 16.8246 4.42041C17.3714 4.28544 17.9433 4.21681 18.5266 4.21681C20.8326 4.21681 22.9097 5.28971 24.3487 7.00086L21.1071 1.52655C20.9035 1.18112 20.6541 0.892873 20.375 0.666397C19.0139 -0.449969 16.9482 -0.164014 15.9462 1.52655L12.7046 7.00086Z" fill="#298DFE"/>
<path d="M30.8364 19.361L27.103 12.37C25.4879 9.348 22.848 7.60711 20.0502 7.14958C20.0456 7.14958 20.0433 7.14729 20.0387 7.14729C19.5515 7.04892 19.0505 6.9986 18.538 6.9986C18.0233 6.9986 17.5223 7.04892 17.0351 7.14729C14.2327 7.60253 11.5905 9.34342 9.97314 12.37L6.23972 19.3564L1.18862 28.8158C0.619003 29.8841 0.433704 30.9936 0.527497 32.1054C1.09026 38.6869 10.2133 38.1036 10.2133 31.4946V30.1884V21.1545C10.2133 21.143 10.2133 21.1316 10.2133 21.1179V21.1522C10.2133 16.8034 13.066 13.1775 16.8589 12.3379C17.4011 12.219 17.9616 12.1549 18.5358 12.1549C20.8326 12.1549 22.9143 13.1638 24.4219 14.7903C25.9271 16.4168 26.8582 18.6678 26.8582 21.1522V30.1884V31.3962C26.8582 37.9755 35.9538 38.5154 36.4662 31.9613C36.5555 30.8358 36.3633 29.7125 35.7868 28.6328L30.8364 19.361Z" fill="#298DFE"/>
<path d="M37.3538 36.0859V20.9257H41.2405V24.5631L40.9637 24.0346C41.2977 22.7581 41.8467 21.8934 42.6154 21.4382C43.384 20.9852 44.2945 20.7587 45.3491 20.7587H46.2367V24.3686H44.9328C43.9148 24.3686 43.0912 24.6797 42.4621 25.2997C41.833 25.9196 41.5173 26.7935 41.5173 27.9236V36.0859H37.3538Z" fill="#298DFE"/>
<path d="M47.0466 36.0859V20.9257H50.9333V24.618L50.5169 24.0072C50.7388 22.8405 51.2764 21.9803 52.1274 21.4244C52.9784 20.8685 53.9964 20.5917 55.1814 20.5917C56.4396 20.5917 57.5445 20.912 58.4985 21.5503C59.4524 22.1885 60.0495 23.0441 60.2897 24.1193L59.0955 24.2314C59.5943 22.9915 60.308 22.0764 61.2322 21.4816C62.1587 20.8891 63.2407 20.594 64.4806 20.594C65.5718 20.594 66.5395 20.8342 67.3814 21.3169C68.2232 21.7973 68.8843 22.4699 69.367 23.33C69.8474 24.1902 70.0899 25.1945 70.0899 26.3429V36.0882H65.9241V27.2305C65.9241 26.638 65.8166 26.1301 65.6039 25.7023C65.3911 25.2768 65.0891 24.9428 64.7025 24.7026C64.3136 24.4624 63.8424 24.3412 63.2865 24.3412C62.7489 24.3412 62.2822 24.4624 61.8842 24.7026C61.4861 24.9428 61.1796 25.2768 60.9668 25.7023C60.7541 26.1278 60.6466 26.638 60.6466 27.2305V36.0882H56.4808V27.2305C56.4808 26.638 56.3733 26.1301 56.1605 25.7023C55.9478 25.2768 55.6458 24.9428 55.2592 24.7026C54.8703 24.4624 54.399 24.3412 53.8431 24.3412C53.3055 24.3412 52.8389 24.4624 52.4408 24.7026C52.0428 24.9428 51.7362 25.2768 51.5235 25.7023C51.3107 26.1278 51.2032 26.638 51.2032 27.2305V36.0882H47.0466V36.0859Z" fill="#298DFE"/>
<path d="M76.7652 36.1865C75.8044 36.1865 74.9168 36.0104 74.0978 35.6604C73.2788 35.3081 72.5765 34.8185 71.9886 34.1894C71.4007 33.5603 70.9706 32.8283 70.7007 31.9887L72.9929 30.9959C73.3589 31.8606 73.8851 32.5401 74.5736 33.0342C75.2622 33.5283 76.04 33.7731 76.9047 33.7731C77.392 33.7731 77.8129 33.6953 78.1721 33.5398C78.5313 33.3842 78.8081 33.1714 79.0025 32.9015C79.1993 32.6316 79.2976 32.3067 79.2976 31.9293C79.2976 31.4832 79.1649 31.1149 78.9019 30.8243C78.6388 30.5338 78.243 30.3073 77.7146 30.1449L74.8161 29.2115C73.6403 28.8455 72.755 28.2988 72.1602 27.569C71.5654 26.8393 71.268 25.9814 71.268 24.9931C71.268 24.1284 71.4808 23.3644 71.9063 22.7009C72.3318 22.0398 72.9266 21.5228 73.6906 21.1499C74.4547 20.7793 75.3286 20.5917 76.3168 20.5917C77.2227 20.5917 78.0531 20.7519 78.8104 21.0676C79.5676 21.3855 80.2195 21.8248 80.7663 22.3852C81.313 22.9457 81.7225 23.6046 81.9925 24.3618L79.7208 25.3752C79.4234 24.618 78.9774 24.0346 78.3826 23.6206C77.7878 23.2088 77.0992 23.0029 76.3145 23.0029C75.8547 23.0029 75.4498 23.0807 75.0975 23.2362C74.7452 23.3918 74.473 23.6091 74.2763 23.8859C74.0795 24.1627 73.9812 24.4922 73.9812 24.8696C73.9812 25.2883 74.1161 25.6566 74.3861 25.9745C74.656 26.2925 75.0678 26.5396 75.6237 26.7157L78.4009 27.5873C79.6042 27.9785 80.5055 28.5207 81.1071 29.2093C81.7088 29.8978 82.0085 30.7511 82.0085 31.7645C82.0085 32.6293 81.7843 33.3933 81.3405 34.0568C80.8944 34.7202 80.279 35.2395 79.4944 35.6169C78.7166 35.9967 77.8061 36.1865 76.7652 36.1865Z" fill="#1E344E"/>
<path d="M86.1194 35.9417L82.3265 24.9107H85.1243L87.9014 33.2857L86.9292 33.2652L89.8894 24.9107H92.2411L95.1807 33.2652L94.2085 33.2857L96.9856 24.9107H99.7834L95.9928 35.9417H93.6205L90.6192 27.2029H91.5113L88.4688 35.9417H86.1194Z" fill="#1E344E"/>
<path d="M103.631 36.1865C102.86 36.1865 102.192 36.0584 101.625 35.8022C101.058 35.546 100.618 35.1777 100.307 34.6973C99.9961 34.2169 99.8406 33.661 99.8406 33.025C99.8406 32.4165 99.9755 31.8721 100.245 31.3917C100.515 30.9113 100.934 30.5086 101.504 30.1861C102.071 29.8612 102.787 29.6325 103.654 29.4975L107.264 28.9096V30.9364L104.162 31.4626C103.636 31.5564 103.242 31.7257 102.986 31.9704C102.73 32.2129 102.602 32.5309 102.602 32.9244C102.602 33.3018 102.746 33.6038 103.039 33.8257C103.329 34.0476 103.691 34.1597 104.123 34.1597C104.677 34.1597 105.168 34.0407 105.594 33.8051C106.019 33.5695 106.351 33.2401 106.587 32.8214C106.822 32.4028 106.941 31.943 106.941 31.442V28.603C106.941 28.1295 106.756 27.7337 106.383 27.4158C106.01 27.0978 105.521 26.9399 104.912 26.9399C104.345 26.9399 103.842 27.0909 103.402 27.3952C102.963 27.6994 102.643 28.102 102.439 28.6007L100.271 27.5461C100.486 26.9651 100.829 26.4618 101.296 26.0363C101.762 25.6108 102.314 25.2768 102.947 25.032C103.583 24.7895 104.272 24.666 105.015 24.666C105.921 24.666 106.719 24.8307 107.408 25.1624C108.097 25.4941 108.634 25.954 109.021 26.5419C109.405 27.1298 109.6 27.8161 109.6 28.6007V35.9418H107.086V34.0568L107.653 34.0156C107.369 34.4891 107.031 34.8849 106.639 35.2029C106.248 35.5208 105.802 35.7633 105.301 35.9326C104.796 36.1019 104.24 36.1865 103.631 36.1865Z" fill="#1E344E"/>
<path d="M110.853 39.9977V24.9131H113.347V27.1023L113.104 26.5556C113.482 25.9608 113.996 25.4987 114.646 25.167C115.296 24.8353 116.046 24.6706 116.897 24.6706C117.938 24.6706 118.878 24.9268 119.716 25.4415C120.553 25.9562 121.219 26.6448 121.713 27.5095C122.207 28.3743 122.452 29.3488 122.452 30.4286C122.452 31.4969 122.209 32.4691 121.722 33.3476C121.235 34.226 120.573 34.9192 119.734 35.4271C118.897 35.9349 117.943 36.1866 116.874 36.1866C116.076 36.1866 115.344 36.0264 114.674 35.7107C114.006 35.3927 113.475 34.9375 113.081 34.3427L113.507 33.8166V40H110.853V39.9977ZM116.572 33.7525C117.181 33.7525 117.721 33.6107 118.194 33.327C118.668 33.0433 119.036 32.6522 119.299 32.1512C119.562 31.6502 119.695 31.076 119.695 30.4286C119.695 29.7789 119.562 29.2093 119.299 28.7151C119.036 28.221 118.668 27.8298 118.194 27.5393C117.721 27.2488 117.181 27.1023 116.572 27.1023C115.991 27.1023 115.467 27.2442 115.001 27.5278C114.534 27.8115 114.17 28.2073 113.905 28.7151C113.642 29.223 113.509 29.7926 113.509 30.4286C113.509 31.0783 113.642 31.6525 113.905 32.1512C114.168 32.6522 114.534 33.0433 115.001 33.327C115.467 33.6107 115.989 33.7525 116.572 33.7525Z" fill="#1E344E"/>
</g>
<defs>
<clipPath id="clip0_5911_22988">
<rect width="122" height="40" fill="white" transform="translate(0.504333)"/>
</clipPath>
</defs>
</svg>
