<svg width="123" height="40" viewBox="0 0 123 40" fill="none" xmlns="http://www.w3.org/2000/svg">
<g clip-path="url(#clip0_2005_5276)">
<path d="M41.1323 27.0659V25.6934C41.027 25.9519 40.9332 26.2332 40.8555 26.5398L41.1323 27.0659Z" fill="#D1D3D4"/>
<path d="M50.8275 27.1206V25.2653C50.6399 25.6313 50.5004 26.0454 50.4111 26.5098L50.8275 27.1206Z" fill="#D1D3D4"/>
<path d="M60.1844 26.622C60.0837 26.1759 59.919 25.771 59.6971 25.4004C59.4272 25.7938 59.1915 26.2376 58.9902 26.7341L60.1844 26.622Z" fill="#D1D3D4"/>
<path d="M41.853 25.6245V24.252C41.7477 24.5105 41.654 24.7918 41.5762 25.0984L41.853 25.6245Z" fill="#D1D3D4"/>
<path d="M51.5482 25.6794V23.8241C51.3606 24.1901 51.2211 24.6042 51.1318 25.0686L51.5482 25.6794Z" fill="#D1D3D4"/>
<path d="M60.9051 25.1807C60.8044 24.7346 60.6397 24.3297 60.4178 23.9591C60.1479 24.3525 59.9122 24.7964 59.7109 25.2928L60.9051 25.1807Z" fill="#D1D3D4"/>
<path d="M18.4597 16.593L14.127 19.6058V22.9663L18.4597 19.9535L22.7925 22.9663V19.6058L18.4597 16.593Z" fill="#FFA048"/>
<path d="M14.127 25.1602V28.5207L18.4597 25.5079L22.7925 28.5207V25.1602L18.4597 22.1497L14.127 25.1602Z" fill="#FFA048"/>
<path d="M14.127 30.7168V34.075L18.4597 31.0622L22.7925 34.075V30.7168L18.4597 27.704L14.127 30.7168Z" fill="#FFA048"/>
<path d="M22.8752 23.0921L18.4601 20.0244L14.0449 23.0921V19.5348L14.0792 19.5097L18.4601 16.4648L18.5058 16.4969L22.8729 19.5326V23.0921H22.8752ZM14.2073 19.6195V22.781L18.4601 19.8254L18.5058 19.8574L22.7128 22.781V19.6195L18.4601 16.6639L14.2073 19.6195Z" fill="#1E344E"/>
<path d="M22.8752 28.6464L18.4601 25.5787L14.0449 28.6464V25.0892L14.0792 25.064L18.4601 22.0192L18.5058 22.0512L22.8729 25.0869V28.6464H22.8752ZM14.2073 25.1761V28.3376L18.4601 25.382L18.5058 25.414L22.7128 28.3376V25.1761L18.4601 22.2205L14.2073 25.1761Z" fill="#1E344E"/>
<path d="M22.8752 34.2031L18.4601 31.1354L14.0449 34.2031V30.6458L14.0792 30.6207L18.4601 27.5758L18.5058 27.6079L22.8729 30.6436V34.2031H22.8752ZM14.2073 30.7305V33.892L18.4601 30.9364L18.5058 30.9684L22.7128 33.892V30.7305L18.4601 27.7749L14.2073 30.7305Z" fill="#1E344E"/>
<path d="M12.7041 7.00086C13.7793 5.72436 15.2068 4.80244 16.8241 4.42041C17.3709 4.28544 17.9428 4.21681 18.5261 4.21681C20.8321 4.21681 22.9092 5.28971 24.3482 7.00086L21.1066 1.52655C20.903 1.18112 20.6536 0.892873 20.3745 0.666397C19.0134 -0.449969 16.9477 -0.164014 15.9457 1.52655L12.7041 7.00086Z" fill="#298DFE"/>
<path d="M30.8359 19.361L27.1025 12.37C25.4875 9.34803 22.8475 7.60714 20.0497 7.14961C20.0452 7.14961 20.0429 7.14732 20.0383 7.14732C19.551 7.04895 19.0501 6.99863 18.5376 6.99863C18.0229 6.99863 17.5219 7.04895 17.0346 7.14732C14.2323 7.60256 11.5901 9.34345 9.97272 12.37L6.2393 19.3564L1.1882 28.8158C0.618575 29.8841 0.433277 30.9936 0.52707 32.1054C1.08983 38.687 10.2129 38.1036 10.2129 31.4946V30.1884V21.1545C10.2129 21.1431 10.2129 21.1316 10.2129 21.1179V21.1522C10.2129 16.8034 13.0656 13.1775 16.8585 12.338C17.4007 12.219 17.9611 12.155 18.5353 12.155C20.8321 12.155 22.9139 13.1638 24.4214 14.7903C25.9267 16.4168 26.8578 18.6679 26.8578 21.1522V30.1884V31.3963C26.8578 37.9755 35.9534 38.5154 36.4658 31.9613C36.555 30.8358 36.3629 29.7126 35.7864 28.6328L30.8359 19.361Z" fill="#298DFE"/>
<path d="M37.3535 36.0859V20.9257H41.2402V24.5631L40.9634 24.0346C41.2974 22.7581 41.8464 21.8934 42.6151 21.4382C43.3837 20.9852 44.2942 20.7587 45.3488 20.7587H46.2364V24.3686H44.9324C43.9145 24.3686 43.0909 24.6797 42.4618 25.2997C41.8327 25.9196 41.517 26.7935 41.517 27.9236V36.0859H37.3535Z" fill="#298DFE"/>
<path d="M47.0459 36.0859V20.9257H50.9326V24.618L50.5162 24.0072C50.7381 22.8405 51.2757 21.9803 52.1267 21.4244C52.9777 20.8685 53.9957 20.5917 55.1807 20.5917C56.4389 20.5917 57.5439 20.912 58.4978 21.5503C59.4517 22.1885 60.0488 23.0441 60.289 24.1193L59.0949 24.2314C59.5936 22.9915 60.3073 22.0764 61.2315 21.4816C62.158 20.8891 63.2401 20.594 64.48 20.594C65.5712 20.594 66.5388 20.8342 67.3807 21.3169C68.2225 21.7973 68.8837 22.4699 69.3664 23.33C69.8468 24.1902 70.0893 25.1945 70.0893 26.3429V36.0882H65.9235V27.2305C65.9235 26.638 65.8159 26.1301 65.6032 25.7023C65.3904 25.2768 65.0885 24.9428 64.7019 24.7026C64.313 24.4624 63.8417 24.3412 63.2858 24.3412C62.7482 24.3412 62.2815 24.4624 61.8835 24.7026C61.4854 24.9428 61.1789 25.2768 60.9662 25.7023C60.7534 26.1278 60.6459 26.638 60.6459 27.2305V36.0882H56.4801V27.2305C56.4801 26.638 56.3726 26.1301 56.1598 25.7023C55.9471 25.2768 55.6451 24.9428 55.2585 24.7026C54.8696 24.4624 54.3984 24.3412 53.8425 24.3412C53.3049 24.3412 52.8382 24.4624 52.4401 24.7026C52.0421 24.9428 51.7356 25.2768 51.5228 25.7023C51.3101 26.1278 51.2025 26.638 51.2025 27.2305V36.0882H47.0459V36.0859Z" fill="#298DFE"/>
<path d="M76.7647 36.1865C75.8039 36.1865 74.9163 36.0104 74.0973 35.6604C73.2784 35.3081 72.5761 34.8185 71.9881 34.1894C71.4002 33.5603 70.9701 32.8283 70.7002 31.9887L72.9924 30.9959C73.3584 31.8606 73.8846 32.5401 74.5732 33.0342C75.2617 33.5283 76.0395 33.7731 76.9043 33.7731C77.3915 33.7731 77.8125 33.6953 78.1716 33.5398C78.5308 33.3842 78.8076 33.1714 79.002 32.9015C79.1988 32.6316 79.2971 32.3067 79.2971 31.9293C79.2971 31.4832 79.1644 31.1149 78.9014 30.8243C78.6383 30.5338 78.2425 30.3073 77.7141 30.1449L74.8157 29.2115C73.6398 28.8455 72.7545 28.2988 72.1597 27.569C71.5649 26.8393 71.2675 25.9814 71.2675 24.9931C71.2675 24.1284 71.4803 23.3644 71.9058 22.7009C72.3313 22.0398 72.9261 21.5228 73.6901 21.1499C74.4542 20.7793 75.3281 20.5917 76.3163 20.5917C77.2222 20.5917 78.0527 20.7519 78.8099 21.0676C79.5671 21.3855 80.219 21.8248 80.7658 22.3852C81.3125 22.9457 81.722 23.6046 81.992 24.3618L79.7203 25.3752C79.4229 24.618 78.9769 24.0346 78.3821 23.6206C77.7873 23.2088 77.0987 23.0029 76.3141 23.0029C75.8542 23.0029 75.4493 23.0807 75.097 23.2362C74.7447 23.3918 74.4725 23.6091 74.2758 23.8859C74.079 24.1627 73.9807 24.4922 73.9807 24.8696C73.9807 25.2883 74.1156 25.6566 74.3856 25.9745C74.6555 26.2925 75.0673 26.5396 75.6232 26.7157L78.4004 27.5873C79.6037 27.9785 80.505 28.5207 81.1067 29.2093C81.7083 29.8978 82.008 30.7511 82.008 31.7645C82.008 32.6293 81.7838 33.3933 81.34 34.0568C80.8939 34.7202 80.2785 35.2395 79.4939 35.6169C78.7161 35.9967 77.8056 36.1865 76.7647 36.1865Z" fill="#1E344E"/>
<path d="M86.1191 35.9417L82.3262 24.9107H85.124L87.9011 33.2858L86.9289 33.2652L89.8891 24.9107H92.2408L95.1804 33.2652L94.2082 33.2858L96.9853 24.9107H99.7831L95.9925 35.9417H93.6202L90.6189 27.2029H91.511L88.4685 35.9417H86.1191Z" fill="#1E344E"/>
<path d="M103.63 36.1865C102.86 36.1865 102.192 36.0584 101.624 35.8022C101.057 35.546 100.618 35.1777 100.307 34.6973C99.9954 34.2169 99.8398 33.661 99.8398 33.025C99.8398 32.4165 99.9748 31.872 100.245 31.3916C100.515 30.9112 100.933 30.5086 101.503 30.186C102.07 29.8612 102.786 29.6324 103.653 29.4975L107.263 28.9096V30.9364L104.161 31.4625C103.635 31.5563 103.242 31.7256 102.985 31.9704C102.729 32.2129 102.601 32.5309 102.601 32.9243C102.601 33.3018 102.745 33.6038 103.038 33.8257C103.328 34.0476 103.69 34.1597 104.122 34.1597C104.676 34.1597 105.168 34.0407 105.593 33.8051C106.019 33.5695 106.35 33.24 106.586 32.8214C106.822 32.4028 106.941 31.943 106.941 31.442V28.603C106.941 28.1295 106.755 27.7337 106.382 27.4157C106.01 27.0977 105.52 26.9399 104.912 26.9399C104.344 26.9399 103.841 27.0909 103.402 27.3951C102.962 27.6994 102.642 28.102 102.439 28.6007L100.27 27.5461C100.485 26.9651 100.828 26.4618 101.295 26.0363C101.761 25.6108 102.313 25.2768 102.946 25.032C103.582 24.7895 104.271 24.666 105.014 24.666C105.92 24.666 106.719 24.8307 107.407 25.1624C108.096 25.4941 108.634 25.9539 109.02 26.5418C109.404 27.1298 109.599 27.8161 109.599 28.6007V35.9417H107.085V34.0567L107.652 34.0156C107.368 34.4891 107.03 34.8849 106.639 35.2028C106.248 35.5208 105.801 35.7633 105.3 35.9326C104.795 36.1019 104.239 36.1865 103.63 36.1865Z" fill="#1E344E"/>
<path d="M110.853 39.9977V24.9131H113.346V27.1023L113.104 26.5556C113.481 25.9608 113.996 25.4987 114.645 25.167C115.295 24.8353 116.045 24.6706 116.896 24.6706C117.937 24.6706 118.878 24.9268 119.715 25.4415C120.552 25.9562 121.218 26.6448 121.712 27.5095C122.206 28.3742 122.451 29.3488 122.451 30.4285C122.451 31.4969 122.208 32.4691 121.721 33.3476C121.234 34.226 120.573 34.9192 119.733 35.427C118.896 35.9349 117.942 36.1865 116.874 36.1865C116.075 36.1865 115.343 36.0264 114.673 35.7107C114.005 35.3927 113.474 34.9375 113.081 34.3427L113.506 33.8165V40H110.853V39.9977ZM116.572 33.7525C117.18 33.7525 117.72 33.6106 118.194 33.327C118.667 33.0433 119.035 32.6521 119.298 32.1511C119.562 31.6501 119.694 31.0759 119.694 30.4285C119.694 29.7789 119.562 29.2092 119.298 28.7151C119.035 28.221 118.667 27.8298 118.194 27.5393C117.72 27.2487 117.18 27.1023 116.572 27.1023C115.991 27.1023 115.467 27.2442 115 27.5278C114.533 27.8115 114.17 28.2072 113.904 28.7151C113.641 29.223 113.508 29.7926 113.508 30.4285C113.508 31.0782 113.641 31.6524 113.904 32.1511C114.167 32.6521 114.533 33.0433 115 33.327C115.467 33.6106 115.988 33.7525 116.572 33.7525Z" fill="#1E344E"/>
</g>
<defs>
<clipPath id="clip0_2005_5276">
<rect width="122" height="40" fill="white" transform="translate(0.503906)"/>
</clipPath>
</defs>
</svg>
