<svg width="131" height="40" viewBox="0 0 131 40" fill="none" xmlns="http://www.w3.org/2000/svg">
<path d="M37.0693 37.5285V16.7268H45.2158C46.706 16.7268 48.0249 16.9822 49.1711 17.4944C50.3173 18.0067 51.2156 18.7504 51.8616 19.7286C52.509 20.7052 52.832 21.8925 52.832 23.2888C52.832 24.7225 52.4745 25.9411 51.7579 26.9462C51.0414 27.9512 50.0769 28.6965 48.8601 29.1803L53.8895 37.5285H49.3634L43.981 28.3978L46.5693 29.8494H41.0697V37.5285H37.0693ZM41.0697 26.4997H45.2759C46.0015 26.4997 46.6294 26.3652 47.1582 26.0949C47.6869 25.8246 48.1 25.4483 48.393 24.9644C48.6874 24.4806 48.8346 23.922 48.8346 23.2888C48.8346 22.6377 48.6874 22.0747 48.393 21.5998C48.0985 21.1249 47.6869 20.753 47.1582 20.4827C46.6294 20.2124 46.0015 20.078 45.2759 20.078H41.0697V26.4997Z" fill="#D1D3D4"/>
<path d="M55.1574 37.5285V16.7268H58.9805L67.1856 27.3091H65.3619L73.3912 16.7268H77.2143V37.5285H73.1854V21.0547L74.7447 21.4176L66.4209 31.9446H65.9508L57.8328 21.4176L59.1563 21.0547V37.5285H55.1574Z" fill="#D1D3D4"/>
<path d="M12.4542 7.90234C13.5358 6.62548 14.9719 5.70404 16.5972 5.32173C17.1471 5.18733 17.7209 5.11863 18.3098 5.11863C20.6307 5.11863 22.7187 6.19239 24.1669 7.90234L20.9056 2.42751C20.6998 2.08104 20.4504 1.79431 20.168 1.56731C18.798 0.450243 16.7204 0.736977 15.7124 2.42751L12.4542 7.90234Z" fill="#D1D3D4"/>
<path d="M30.5122 20.8038L26.7567 13.8132C25.1328 10.7905 22.4769 9.05072 19.6633 8.59224C19.6588 8.59075 19.6558 8.59075 19.6512 8.58925C19.16 8.49069 18.6568 8.44141 18.1415 8.44141C17.6248 8.44141 17.1215 8.49218 16.6303 8.58925C16.6303 8.58925 16.6303 8.58925 16.6288 8.58925C13.8107 9.04624 11.1518 10.7861 9.52488 13.8132L5.77086 20.7993L0.688903 30.2586C0.115061 31.3264 -0.071213 32.436 0.023426 33.5485C0.588255 40.13 9.76823 39.5476 9.76823 32.9392V31.6325V22.5989C9.76823 22.5869 9.76974 22.575 9.76974 22.563V22.5989C9.76974 18.2501 12.6389 14.6226 16.453 13.7833C16.9983 13.6638 17.5617 13.6011 18.14 13.6011C20.4504 13.6011 22.5445 14.6092 24.0602 16.237C25.5744 17.8648 26.5118 20.1154 26.5118 22.6004V31.637V32.8451C26.5118 39.4236 35.6603 39.9657 36.177 33.4097C36.2656 32.2836 36.0734 31.1621 35.4935 30.0809L30.5122 20.8038Z" fill="#D1D3D4"/>
<path d="M18.789 16.5955L14.4296 19.6077V22.9663L18.789 19.9541L23.1469 22.9663V19.6077L18.789 16.5955Z" fill="#FFA048"/>
<path d="M14.4296 25.1631V28.5217L18.789 25.5095L23.1469 28.5217V25.1631L18.789 22.1509L14.4296 25.1631Z" fill="#FFA048"/>
<path d="M14.4296 30.7185V34.0772L18.789 31.065L23.1469 34.0772V30.7185L18.789 27.7048L14.4296 30.7185Z" fill="#FFA048"/>
<path d="M23.2295 23.093L18.789 20.0241L14.347 23.093V19.5357L14.3815 19.5119L18.7875 16.4668L18.8341 16.4997L23.228 19.5357V23.093H23.2295ZM14.5107 19.6209V22.7824L18.789 19.827L18.8356 19.8598L23.0673 22.7839V19.6224L18.789 16.6669L14.5107 19.6209Z" fill="#1E344E"/>
<path d="M23.2295 28.6485L18.789 25.5795L14.347 28.6485V25.0912L14.3815 25.0673L18.7875 22.0222L18.8341 22.0551L23.228 25.0912V28.6485H23.2295ZM14.5107 25.1763V28.3378L18.789 25.3809L18.8356 25.4137L23.0673 28.3378V25.1763L18.789 22.2208L14.5107 25.1763Z" fill="#1E344E"/>
<path d="M23.2295 34.2039L18.789 31.1349L14.347 34.2039V30.6466L14.3815 30.6227L18.7875 27.5776L18.8341 27.6105L23.228 30.6466V34.2039H23.2295ZM14.5107 30.7317V33.8933L18.789 30.9363L18.8356 30.9692L23.0673 33.8933V30.7317L18.789 27.7763L14.5107 30.7317Z" fill="#1E344E"/>
<path d="M12.998 7.0017C14.0796 5.72484 15.5157 4.80341 17.1411 4.4211C17.6909 4.28669 18.2647 4.21799 18.8536 4.21799C21.1745 4.21799 23.2626 5.29175 24.7107 7.0017L21.4494 1.52688C21.2436 1.18041 20.9942 0.893673 20.7118 0.666675C19.3418 -0.450392 17.2643 -0.163658 16.2563 1.52688L12.998 7.0017Z" fill="#298DFE"/>
<path d="M31.2378 19.3627L27.4823 12.372C25.8584 9.34937 23.2025 7.60955 20.3888 7.15108C20.3843 7.14958 20.3813 7.14958 20.3768 7.14809C19.8856 7.04953 19.3824 7.00024 18.8671 7.00024C18.3504 7.00024 17.8471 7.05102 17.3559 7.14809C17.3559 7.14809 17.3559 7.14809 17.3544 7.14809C14.5363 7.60358 11.8774 9.3434 10.2505 12.3705L6.49645 19.3567L1.41449 28.8174C0.840646 29.8852 0.654373 30.9948 0.749012 32.1074C1.31384 38.6888 10.4938 38.1064 10.4938 31.4981V30.1913V21.1577C10.4938 21.1458 10.4953 21.1338 10.4953 21.1219V21.1577C10.4953 16.8089 13.3645 13.1814 17.1786 12.3422C17.7239 12.2227 18.2873 12.16 18.8656 12.16C21.176 12.16 23.2701 13.168 24.7858 14.7958C26.3 16.4236 27.2374 18.6742 27.2374 21.1592V30.1958V31.404C27.2374 37.9824 36.3858 38.5245 36.9026 31.9685C36.9912 30.8425 36.7989 29.7209 36.2191 28.6397L31.2378 19.3627Z" fill="#298DFE"/>
<path d="M84.9491 36.1873C83.9832 36.1873 83.0894 36.0111 82.2677 35.6602C81.4445 35.3092 80.7385 34.8194 80.1466 34.1907C79.5547 33.5619 79.1236 32.8287 78.8517 31.9909L81.1561 30.9978C81.5226 31.8624 82.0529 32.5419 82.7469 33.0363C83.4409 33.5291 84.2221 33.777 85.0918 33.777C85.5816 33.777 86.0067 33.6993 86.3672 33.544C86.7277 33.3887 87.0057 33.1751 87.2039 32.9048C87.4007 32.6345 87.4999 32.3105 87.4999 31.9311C87.4999 31.4846 87.3677 31.1172 87.1018 30.826C86.8374 30.5348 86.4393 30.3093 85.909 30.1465L82.9918 29.2131C81.808 28.8488 80.9172 28.3007 80.3193 27.5704C79.7215 26.8401 79.4225 25.9829 79.4225 24.9958C79.4225 24.1311 79.6373 23.3665 80.0655 22.7049C80.4936 22.0433 81.0915 21.5251 81.8606 21.1532C82.6282 20.7814 83.5085 20.5962 84.5015 20.5962C85.4118 20.5962 86.2485 20.7545 87.0102 21.0726C87.7718 21.3907 88.4282 21.8297 88.978 22.3913C89.5294 22.9528 89.9395 23.6114 90.2114 24.3685L87.9265 25.3826C87.6276 24.6254 87.1784 24.0415 86.5805 23.6293C85.9826 23.2171 85.2886 23.011 84.5 23.011C84.0373 23.011 83.6302 23.0887 83.2757 23.244C82.9212 23.3993 82.6462 23.6159 82.4495 23.8936C82.2527 24.1714 82.1535 24.4985 82.1535 24.8778C82.1535 25.2974 82.2887 25.6648 82.5621 25.9829C82.834 26.301 83.2486 26.5474 83.806 26.7236L86.6001 27.5958C87.8108 27.9885 88.7182 28.5292 89.3236 29.2176C89.9289 29.9076 90.2309 30.7588 90.2309 31.7728C90.2309 32.6375 90.0071 33.4021 89.5579 34.0637C89.1087 34.7268 88.4898 35.2465 87.7012 35.6243C86.914 35.9977 85.9962 36.1873 84.9491 36.1873Z" fill="#1E344E"/>
<path d="M94.359 35.9439L90.5449 24.9136H93.36L96.1541 33.2886L95.1747 33.2677L98.152 24.9136H100.518L103.476 33.2677L102.496 33.2886L105.291 24.9136H108.106L104.292 35.9439H101.905L98.8851 27.2045H99.7819L96.7219 35.9439H94.359Z" fill="#1E344E"/>
<path d="M111.977 36.1873C111.202 36.1873 110.529 36.0589 109.958 35.802C109.387 35.5452 108.945 35.1763 108.631 34.6969C108.319 34.2175 108.163 33.659 108.163 33.0243C108.163 32.4165 108.298 31.8714 108.571 31.392C108.843 30.9126 109.265 30.5094 109.836 30.1853C110.407 29.8613 111.128 29.6313 111.998 29.4954L115.629 28.907V30.935L112.509 31.4622C111.978 31.5563 111.583 31.7265 111.325 31.9685C111.066 32.2119 110.937 32.53 110.937 32.9213C110.937 33.3006 111.083 33.6008 111.376 33.8233C111.669 34.0458 112.032 34.1578 112.467 34.1578C113.024 34.1578 113.517 34.0398 113.945 33.8024C114.373 33.5664 114.706 33.2379 114.944 32.8182C115.181 32.4001 115.301 31.9401 115.301 31.4398V28.6008C115.301 28.1274 115.115 27.7317 114.741 27.4151C114.367 27.097 113.874 26.9387 113.263 26.9387C112.692 26.9387 112.186 27.091 111.742 27.3957C111.301 27.7003 110.978 28.102 110.774 28.6023L108.591 27.548C108.809 26.9671 109.151 26.4638 109.621 26.0367C110.09 25.611 110.644 25.2765 111.284 25.0331C111.923 24.7897 112.617 24.6687 113.365 24.6687C114.275 24.6687 115.079 24.8345 115.771 25.166C116.465 25.4975 117.005 25.9575 117.392 26.5444C117.78 27.1328 117.974 27.8183 117.974 28.6023V35.9424H115.444V34.0563L116.015 34.0159C115.729 34.4893 115.39 34.8851 114.995 35.2017C114.6 35.5198 114.152 35.7632 113.649 35.932C113.146 36.1037 112.588 36.1873 111.977 36.1873Z" fill="#1E344E"/>
<path d="M119.242 40V24.9136H121.75V27.103L121.505 26.5549C121.885 25.9605 122.402 25.4975 123.056 25.166C123.709 24.8345 124.463 24.6687 125.319 24.6687C126.366 24.6687 127.311 24.9256 128.154 25.4393C128.997 25.953 129.667 26.643 130.164 27.5077C130.66 28.3723 130.909 29.346 130.909 30.4273C130.909 31.4951 130.664 32.4688 130.175 33.3469C129.685 34.2265 129.018 34.9179 128.175 35.4257C127.332 35.9335 126.374 36.1858 125.3 36.1858C124.498 36.1858 123.76 36.026 123.087 35.7094C122.414 35.3914 121.881 34.9359 121.486 34.34L121.914 33.8128V39.997H119.242V40ZM124.993 33.7546C125.605 33.7546 126.149 33.6127 126.625 33.329C127.101 33.0452 127.471 32.6524 127.736 32.1522C128.002 31.6519 128.135 31.0769 128.135 30.4288C128.135 29.7791 128.002 29.2087 127.736 28.7158C127.471 28.223 127.101 27.8302 126.625 27.539C126.149 27.2478 125.605 27.103 124.993 27.103C124.409 27.103 123.882 27.2448 123.413 27.5286C122.944 27.8123 122.576 28.2081 122.312 28.7143C122.046 29.2206 121.914 29.7926 121.914 30.4273C121.914 31.0754 122.046 31.6504 122.312 32.1507C122.576 32.651 122.944 33.0422 123.413 33.3275C123.882 33.6127 124.408 33.7546 124.993 33.7546Z" fill="#1E344E"/>
<path d="M37.7934 36.0873V15.2856H45.9399C47.43 15.2856 48.749 15.541 49.8952 16.0533C51.0413 16.5655 51.9397 17.3092 52.5856 18.2874C53.2331 19.2641 53.556 20.4513 53.556 21.8477C53.556 23.2813 53.1985 24.5 52.482 25.505C51.7654 26.5101 50.801 27.2553 49.5842 27.7392L54.6136 36.0873H50.0844L44.702 26.9566L47.2903 28.4082H41.7908V36.0873H37.7934ZM41.7938 25.0585H45.9999C46.7255 25.0585 47.3534 24.9241 47.8822 24.6538C48.411 24.3835 48.8241 24.0071 49.117 23.5233C49.4115 23.0394 49.5587 22.4809 49.5587 21.8477C49.5587 21.1965 49.4115 20.6335 49.117 20.1586C48.8226 19.6837 48.411 19.3119 47.8822 19.0416C47.3534 18.7713 46.7255 18.6368 45.9999 18.6368H41.7938V25.0585Z" fill="#298DFE"/>
<path d="M55.8829 36.0873V15.2856H59.706L67.9111 25.8679H66.0874L74.1167 15.2856H77.9398V36.0873H73.9109V19.6135L75.4702 19.9764L67.1465 30.5034H66.6763L58.5584 19.9764L59.8818 19.6135V36.0873H55.8829Z" fill="#298DFE"/>
</svg>
