<?xml version="1.0" encoding="UTF-8"?>
<svg width="46px" height="46px" viewBox="0 0 46 46" version="1.1" xmlns="http://www.w3.org/2000/svg" xmlns:xlink="http://www.w3.org/1999/xlink">
    <title>编组 25</title>
    <defs>
        <linearGradient x1="100%" y1="0%" x2="100%" y2="100%" id="linearGradient-1">
            <stop stop-color="#7C42EB" offset="0%"></stop>
            <stop stop-color="#5843FF" offset="100%"></stop>
        </linearGradient>
    </defs>
    <g id="页面-1" stroke="none" stroke-width="1" fill="none" fill-rule="evenodd">
        <g id="首页-白天-统计" transform="translate(-1178.000000, -113.000000)">
            <g id="编组-25" transform="translate(1178.000000, 113.000000)">
                <g id="编组-17" transform="translate(23.010091, 23.005560) scale(-1, 1) translate(-23.010091, -23.005560) translate(3.000000, 7.000000)">
                    <path d="M23.973123,32.0111191 C23.5245779,32.0111191 24.1940212,32.0111191 23.9814527,32.0111191 M21.3432211,32.0111191 C17.7113942,32.0111191 12.2636538,32.0111191 5,32.0111191 C2.23857625,32.0111191 0,29.7725429 0,27.0111191 L30,27.0111191 L30,29.5099561 C30,30.8913103 31.1198088,32.0111191 32.501163,32.0111191 C33.8825172,32.0111191 35.002326,30.8913103 35.002326,29.5099561 L35.002326,2.50892774 C35.002326,1.12328521 36.1256112,2.54538403e-16 37.5112538,0 C38.8968963,-2.54538403e-16 40.0201815,1.12328521 40.0201815,2.50892774 C40.0201815,3.35512578 40.0201815,4.20132381 40.0201815,5.04752185 L35.002326,5.04752185" id="形状" stroke="#BAA0F6" stroke-width="2" stroke-linecap="round" stroke-linejoin="round"></path>
                    <path d="M5.99259376,6.03226933 C5.99259376,5.90728902 5.99259376,5.81355379 5.99259376,5.75106363 M5.99259376,3.01613466 C5.99259376,0.806995665 7.78345476,0 9.99259376,0 L37.7364319,0" id="形状" stroke="#BAA0F6" stroke-width="2" stroke-linecap="round"></path>
                    <polygon id="路径" fill="#6642F7" fill-rule="nonzero" opacity="0.5" transform="translate(14.833366, 15.197652) scale(-1, 1) translate(-14.833366, -15.197652) " points="4.33339627 14.1188835 6.33339627 21.6898394 25.3333355 21.6898394 25.3333355 8.70546443 17.4446876 14.161935 12.4863702 11.8991621 7.48605283 14.7620855"></polygon>
                    <polygon id="路径" fill="url(#linearGradient-1)" transform="translate(13.833366, 15.197652) scale(-1, 1) translate(-13.833366, -15.197652) " points="4.33339627 13.1188835 4.33339627 21.6898394 23.3333355 21.6898394 23.3333355 8.70546443 17.4446876 13.161935 12.4863702 10.8991621 7.48605283 13.7620855"></polygon>
                    <path d="M20.2224609,6.5 L28.0201815,6.5 M17.2224609,6.5 L17.4464633,6.5" id="形状结合" stroke="#BAA0F6" stroke-width="2" stroke-linecap="round" transform="translate(22.427322, 6.500000) scale(-1, 1) translate(-22.427322, -6.500000) "></path>
                </g>
                <rect id="矩形" stroke="#979797" fill="#D8D8D8" opacity="0" x="0.5" y="0.5" width="45" height="45"></rect>
            </g>
        </g>
    </g>
</svg>